# xmcd
#
# Track frame offsets: 
#        150
#        19897
#        39720
#
# Disc length: 821 seconds
#
# Revision: 3
# Processed by: cddbd v1.5.2PL0 Copyright (c) Steve Scherf et al.
# Submitted via: ExactAudioCopy v1.0b3
#
DISCID=1f033303
DTITLE=元ちとせ - この街
DYEAR=2002
DGENRE=JPop
TTITLE0=この街
TTITLE1=ハミングバード
TTITLE2=凛とする (Strings Version)
EXTD=YEAR: 2002
EXTT0=
EXTT1=
EXTT2=
PLAYORDER=
